<?xml version="1.0" encoding="UTF-8"?>
<svg version="1.1" xmlns="http://www.w3.org/2000/svg" width="512" height="512">
<path d="M0 0 C1.01790619 0.00215515 2.03581238 0.0043103 3.08456421 0.00653076 C17.69363523 0.05620146 32.02575853 0.30709809 46.375 3.3125 C47.34985352 3.51117676 48.32470703 3.70985352 49.32910156 3.91455078 C97.7109774 14.03517194 141.69928269 35.9516877 177.375 70.3125 C178.3640332 71.26068604 178.3640332 71.26068604 179.37304688 72.22802734 C188.86130305 81.37247479 197.6012044 90.66984009 205.375 101.3125 C206.23306152 102.46355017 207.09113451 103.61459177 207.94921875 104.765625 C213.98736829 112.95680614 219.34595521 121.47054105 224.375 130.3125 C224.73948242 130.94430176 225.10396484 131.57610352 225.47949219 132.22705078 C247.08534998 169.97532572 256.85198095 212.74189997 256.6875 255.9375 C256.68534485 256.95540619 256.6831897 257.97331238 256.68096924 259.02206421 C256.63129854 273.63113523 256.38040191 287.96325853 253.375 302.3125 C253.07698486 303.77478027 253.07698486 303.77478027 252.77294922 305.26660156 C242.65232806 353.6484774 220.7358123 397.63678269 186.375 433.3125 C185.74287598 433.97185547 185.11075195 434.63121094 184.45947266 435.31054688 C175.31502521 444.79880305 166.01765991 453.5387044 155.375 461.3125 C154.22394983 462.17056152 153.07290823 463.02863451 151.921875 463.88671875 C143.73224019 469.92427396 135.22961724 475.30707302 126.375 480.3125 C125.66778809 480.7146875 124.96057617 481.116875 124.23193359 481.53125 C101.09654164 494.5566741 75.92537591 503.30551461 49.9375 508.625 C49.21860596 508.77235596 48.49971191 508.91971191 47.7590332 509.0715332 C33.08339502 511.86090125 18.55831162 512.66142619 3.64770508 512.62817383 C0.70811513 512.6250221 -2.2304558 512.64854926 -5.16992188 512.67382812 C-18.54306192 512.71848737 -31.43916711 511.51301542 -44.625 509.3125 C-46.33055054 509.03031616 -46.33055054 509.03031616 -48.07055664 508.74243164 C-91.33802759 500.97044532 -132.38793216 480.98345309 -165.625 452.3125 C-166.37007813 451.67828125 -167.11515625 451.0440625 -167.8828125 450.390625 C-181.38779833 438.57948485 -194.05918743 425.82889772 -204.625 411.3125 C-205.48149066 410.16255169 -206.33826433 409.01281411 -207.1953125 407.86328125 C-213.23534209 399.67315742 -218.61867614 391.16870382 -223.625 382.3125 C-224.0271875 381.60528809 -224.429375 380.89807617 -224.84375 380.16943359 C-237.8691741 357.03404164 -246.61801461 331.86287591 -251.9375 305.875 C-252.08485596 305.15610596 -252.23221191 304.43721191 -252.3840332 303.6965332 C-255.35789088 288.05024391 -255.99800362 272.57681954 -255.9375 256.6875 C-255.93534485 255.66959381 -255.9331897 254.65168762 -255.93096924 253.60293579 C-255.88129854 238.99386477 -255.63040191 224.66174147 -252.625 210.3125 C-252.42632324 209.33764648 -252.22764648 208.36279297 -252.02294922 207.35839844 C-241.90232806 158.9765226 -219.9858123 114.98821731 -185.625 79.3125 C-184.99287598 78.65314453 -184.36075195 77.99378906 -183.70947266 77.31445312 C-174.56502521 67.82619695 -165.26765991 59.0862956 -154.625 51.3125 C-153.47394983 50.45443848 -152.32290823 49.59636549 -151.171875 48.73828125 C-142.98224019 42.70072604 -134.47961724 37.31792698 -125.625 32.3125 C-124.91778809 31.9103125 -124.21057617 31.508125 -123.48193359 31.09375 C-100.34654164 18.0683259 -75.17537591 9.31948539 -49.1875 4 C-48.46860596 3.85264404 -47.74971191 3.70528809 -47.0090332 3.5534668 C-31.36274391 0.57960912 -15.88931954 -0.06050362 0 0 Z " fill="#77767D" transform="translate(255.625,-0.3125)"/>
<path d="M0 0 C8.85711576 3.96831514 16.1190569 11.95826592 23.14208984 18.53857422 C27.49238904 22.59270494 32.00163011 26.3637003 36.66015625 30.0625 C39 32 39 32 40.50396729 34.0869751 C44.44959099 37.11100453 48.4363316 36.57058758 53.27636719 36.54589844 C54.32058334 36.55623611 55.3647995 36.56657379 56.44065857 36.57722473 C59.89288673 36.60672744 63.3445305 36.60815353 66.796875 36.609375 C69.19013594 36.62435154 71.58338652 36.64107756 73.97662354 36.65948486 C80.27635158 36.7032293 86.5759402 36.72317335 92.87579346 36.73822021 C99.30399851 36.7577656 105.73205241 36.79973853 112.16015625 36.83984375 C124.77338636 36.91522283 137.38659339 36.96622928 150 37 C149.98143951 38.13846375 149.96287903 39.27692749 149.9437561 40.44989014 C149.77743601 51.21846078 149.68577423 61.98547225 149.66578102 72.75533676 C149.65314192 78.29168133 149.61490317 83.82530105 149.51660156 89.36083984 C149.42255901 94.7110344 149.39779948 100.05761413 149.41953659 105.40854645 C149.41591781 107.44189777 149.3880134 109.47536606 149.33458328 111.50801849 C148.75695627 123.61528427 148.75695627 123.61528427 154.15301514 133.92980957 C157.51894902 137.02946095 161.15974112 139.5247395 165 142 C167.5626778 144.5626778 167.23916611 146.235784 167.25816154 149.72904015 C167.24942355 150.93976912 167.24942355 150.93976912 167.24050903 152.17495728 C167.24307709 153.45461113 167.24307709 153.45461113 167.24569702 154.76011658 C167.24902267 157.64436038 167.23793572 160.52837488 167.22705078 163.41259766 C167.22643849 165.50541362 167.22670445 167.59822999 167.2277813 169.69104576 C167.22823411 175.31194359 167.2166153 180.93275683 167.20256042 186.55363464 C167.19119778 191.82181067 167.19063567 197.08996579 167.18920898 202.3581543 C167.17870082 217.78044747 167.15077869 233.20272479 167.125 248.625 C167.08375 283.06875 167.0425 317.5125 167 353 C57.77 353 -51.46 353 -164 353 C-164.309375 318.618125 -164.61875 284.23625 -164.9375 248.8125 C-165.07406006 237.96737549 -165.21062012 227.12225098 -165.35131836 215.94848633 C-165.41906738 202.67712402 -165.41906738 202.67712402 -165.43165588 196.45878601 C-165.44560066 192.12651207 -165.501668 187.79701101 -165.58363342 183.46549988 C-165.68699476 177.92946162 -165.71729012 172.39741906 -165.69608414 166.86050546 C-165.70051358 164.83544758 -165.73000297 162.81024164 -165.78822696 160.78601611 C-166.19753433 145.85504926 -166.19753433 145.85504926 -162.47505009 141.0187763 C-159.3516983 137.94516925 -155.91578239 135.38615613 -152.39958858 132.78453541 C-149.34520658 130.46472509 -147.8616568 128.80866628 -147.15821838 124.90605164 C-147.033267 122.46861422 -147.033267 122.46861422 -147.20532227 119.98706055 C-147.1933783 119.07808014 -147.18143433 118.16909973 -147.16912842 117.23257446 C-147.1475846 114.27900872 -147.23069245 111.33894058 -147.31640625 108.38671875 C-147.32195611 106.32022308 -147.32086285 104.25369995 -147.3134613 102.18721008 C-147.31173391 96.78805828 -147.39929617 91.39403523 -147.50646973 85.99609375 C-147.60001466 80.47225511 -147.60775532 74.94833952 -147.62304688 69.42382812 C-147.6654495 58.6141274 -147.80233102 47.80789969 -148 37 C-146.68392258 37.00967804 -145.36784515 37.01935608 -144.0118866 37.02932739 C-131.57998845 37.11419329 -119.14891657 37.14615845 -106.71673107 37.12697029 C-100.32576431 37.11878923 -93.93594368 37.12893339 -87.54516602 37.18164062 C-81.37194552 37.23186803 -75.20044633 37.2330653 -69.0271244 37.20095444 C-66.67770989 37.19721704 -64.32819857 37.21083987 -61.97899437 37.24249649 C-47.00451171 37.88444717 -47.00451171 37.88444717 -34.3059082 31.19873047 C-32.84737065 29.48533041 -31.41076077 27.75294769 -30 26 C-28.24190043 24.50137014 -26.45314441 23.0373362 -24.625 21.625 C-19.75106129 17.69508098 -15.14941042 13.53443122 -10.59033203 9.24853516 C-7.16004158 6.0304053 -3.63907713 2.9808883 0 0 Z " fill="#FEB400" transform="translate(255,53)"/>
<path d="M0 0 C8.85711576 3.96831514 16.1190569 11.95826592 23.14208984 18.53857422 C27.49238904 22.59270494 32.00163011 26.3637003 36.66015625 30.0625 C39 32 39 32 40.50396729 34.0869751 C44.44959099 37.11100453 48.4363316 36.57058758 53.27636719 36.54589844 C54.32058334 36.55623611 55.3647995 36.56657379 56.44065857 36.57722473 C59.89288673 36.60672744 63.3445305 36.60815353 66.796875 36.609375 C69.19013594 36.62435154 71.58338652 36.64107756 73.97662354 36.65948486 C80.27635158 36.7032293 86.5759402 36.72317335 92.87579346 36.73822021 C99.30399851 36.7577656 105.73205241 36.79973853 112.16015625 36.83984375 C124.77338636 36.91522283 137.38659339 36.96622928 150 37 C150.23385116 52.13357105 150.41006382 67.2670587 150.51812172 82.4020319 C150.56963512 89.43001346 150.63982918 96.45687097 150.75439453 103.48413086 C150.86491259 110.26638354 150.92284716 117.04746804 150.94877243 123.8305645 C150.96724626 126.4178855 151.00332321 129.00514276 151.05730057 131.59196663 C151.12994607 135.21774242 151.13989017 138.83870112 151.13525391 142.46508789 C151.18918304 144.06839211 151.18918304 144.06839211 151.24420166 145.7040863 C151.18156154 150.23386219 151.09420346 152.9053079 147.80252075 156.19846058 C145.26978908 157.99020638 142.72839075 159.52804641 140 161 C139.01354492 161.64332275 138.02708984 162.28664551 137.01074219 162.94946289 C136.19766602 163.4521167 135.38458984 163.95477051 134.546875 164.47265625 C133.60932373 165.05490967 132.67177246 165.63716309 131.70581055 166.23706055 C130.24268433 167.14065308 130.24268433 167.14065308 128.75 168.0625 C126.62583215 169.38205632 124.50214479 170.70238638 122.37890625 172.0234375 C121.31430176 172.68569336 120.24969727 173.34794922 119.15283203 174.03027344 C114.31278474 177.05408493 109.49858319 180.11788073 104.6875 183.1875 C95.58291417 188.99415746 86.46035131 194.77147845 77.32666016 200.53222656 C73.38339755 203.01983357 69.44179232 205.51006414 65.5 208 C63.9166744 209.00001224 62.33334107 210.00001225 60.75 211 C59.96625 211.495 59.1825 211.99 58.375 212.5 C56 214 53.625 215.5 51.25 217 C50.4660083 217.49516113 49.6820166 217.99032227 48.87426758 218.50048828 C47.2934066 219.49890968 45.71251475 220.4972822 44.1315918 221.49560547 C39.32633645 224.53013882 34.52183717 227.56585816 29.71948242 230.60498047 C28.12895875 231.60940286 26.53670013 232.61108373 24.94262695 233.60986328 C21.07618372 236.03480745 17.24432916 238.49394811 13.4609375 241.046875 C12.73994873 241.52366699 12.01895996 242.00045898 11.27612305 242.49169922 C9.9226456 243.38811105 8.57947541 244.30036448 7.24926758 245.23095703 C4.27593316 247.17724046 2.60292964 248.08885279 -0.96875 247.5625 C-4.71256896 245.63269641 -8.19317193 243.47189396 -11.6875 241.125 C-13.20375433 240.12528099 -14.72070727 239.1266209 -16.23828125 238.12890625 C-17.02154785 237.61215332 -17.80481445 237.09540039 -18.61181641 236.56298828 C-22.50340977 234.01606733 -26.43827495 231.53887299 -30.375 229.0625 C-31.16543701 228.56443848 -31.95587402 228.06637695 -32.77026367 227.55322266 C-34.37756689 226.54053531 -35.98507047 225.52816588 -37.59277344 224.51611328 C-41.56436947 222.01473282 -45.53199716 219.50707491 -49.5 217 C-51.08331399 215.99996938 -52.66664733 214.99996939 -54.25 214 C-101.75 184 -101.75 184 -104.12646484 182.49902344 C-105.70485345 181.5021806 -107.28330366 180.50543531 -108.86181641 179.50878906 C-112.89632289 176.96129354 -116.92964187 174.41194901 -120.9609375 171.859375 C-121.78400391 171.33859375 -122.60707031 170.8178125 -123.45507812 170.28125 C-124.99325085 169.30794296 -126.53105392 168.3340513 -128.06835938 167.359375 C-128.78572266 166.905625 -129.50308594 166.451875 -130.2421875 165.984375 C-130.93350266 165.51565979 -131.62481781 165.04694458 -132.33708191 164.56402588 C-135.00780694 162.87437636 -135.00780694 162.87437636 -138.26374817 161.89349365 C-142.37640097 160.20533287 -145.45788282 158.73255833 -148 155 C-150.51339654 146.54244437 -149.50423044 137.11536475 -149.26953125 128.40625 C-149.24527204 125.77214091 -149.22677297 123.13797299 -149.21379089 120.50378418 C-149.1734939 114.29065161 -149.06698304 108.08051747 -148.93624753 101.86870146 C-148.79058396 94.79289703 -148.71937815 87.71694391 -148.65420687 80.64001179 C-148.5185755 66.09179919 -148.29014373 51.54594152 -148 37 C-146.68392258 37.00967804 -145.36784515 37.01935608 -144.0118866 37.02932739 C-131.57998845 37.11419329 -119.14891657 37.14615845 -106.71673107 37.12697029 C-100.32576431 37.11878923 -93.93594368 37.12893339 -87.54516602 37.18164062 C-81.37194552 37.23186803 -75.20044633 37.2330653 -69.0271244 37.20095444 C-66.67770989 37.19721704 -64.32819857 37.21083987 -61.97899437 37.24249649 C-47.00451171 37.88444717 -47.00451171 37.88444717 -34.3059082 31.19873047 C-32.84737065 29.48533041 -31.41076077 27.75294769 -30 26 C-28.24190043 24.50137014 -26.45314441 23.0373362 -24.625 21.625 C-19.75106129 17.69508098 -15.14941042 13.53443122 -10.59033203 9.24853516 C-7.16004158 6.0304053 -3.63907713 2.9808883 0 0 Z " fill="#FEFEFD" transform="translate(255,53)"/>
<path d="M0 0 C0.66 0 1.32 0 2 0 C3.41952896 1.43841743 3.41952896 1.43841743 5.0791626 3.44607544 C9.08146657 8.14856871 13.36303827 12.50372202 17.73339844 16.86279297 C19.00054436 18.13256737 19.00054436 18.13256737 20.29328918 19.42799377 C22.58658926 21.72491377 24.88208926 24.01960448 27.17879391 26.31311941 C29.59053089 28.7223057 31.99980574 31.1339523 34.40948486 33.54519653 C38.44909267 37.58661642 42.49078854 41.62593907 46.53369141 45.6640625 C51.20551352 50.33042538 55.87369756 55.00040455 60.54004455 59.67224205 C64.55704249 63.69377659 68.57598398 67.71336102 72.59655976 71.73131859 C74.99365023 74.12685167 77.39006363 76.52305156 79.78472137 78.92101669 C82.44879934 81.58762584 85.11604727 84.25102269 87.78417969 86.91357422 C88.5759108 87.70732956 89.36764191 88.5010849 90.18336487 89.31889343 C90.90940414 90.04211288 91.63544342 90.76533234 92.38348389 91.51046753 C93.3280501 92.4544682 93.3280501 92.4544682 94.29169846 93.4175396 C96.11792365 95.19308955 96.11792365 95.19308955 99 97 C99.75195312 98.8815918 99.75195312 98.8815918 100.28125 101.19921875 C100.48210205 102.06482422 100.6829541 102.93042969 100.88989258 103.82226562 C101.09122803 104.76779297 101.29256348 105.71332031 101.5 106.6875 C101.71358154 107.68587891 101.92716309 108.68425781 102.1472168 109.71289062 C102.78883693 112.80431103 103.39897075 115.90045648 104 119 C104.17096191 119.84127441 104.34192383 120.68254883 104.51806641 121.54931641 C109.97650234 149.49900239 109.83644049 183.13401187 104 211 C103.70198486 212.46228027 103.70198486 212.46228027 103.39794922 213.95410156 C93.27732806 262.3359774 71.3608123 306.32428269 37 342 C36.36787598 342.65935547 35.73575195 343.31871094 35.08447266 343.99804688 C25.94002521 353.48630305 16.64265991 362.2262044 6 370 C4.84894983 370.85806152 3.69790823 371.71613451 2.546875 372.57421875 C-5.64275981 378.61177396 -14.14538276 383.99457302 -23 389 C-23.70721191 389.4021875 -24.41442383 389.804375 -25.14306641 390.21875 C-48.27845836 403.2441741 -73.44962409 411.99301461 -99.4375 417.3125 C-100.15639404 417.45985596 -100.87528809 417.60721191 -101.6159668 417.7590332 C-116.29160498 420.54840125 -130.81668838 421.34892619 -145.72729492 421.31567383 C-148.66688487 421.3125221 -151.6054558 421.33604926 -154.54492188 421.36132812 C-165.89174728 421.40198416 -176.98491318 420.84833203 -188.18167114 418.93177795 C-191.88024737 418.30976337 -195.5450136 417.83869293 -199.27862549 417.49305725 C-217.08699184 415.34475798 -227.07319029 405.37335646 -238.91918254 392.93883991 C-241.54337979 390.20419559 -244.21986026 387.52160552 -246.89051819 384.8324585 C-251.91721717 379.75540834 -256.89595629 374.63397717 -261.85854965 369.49433494 C-267.51835223 363.63773034 -273.2338705 357.83677134 -278.95293224 352.03811884 C-287.82428598 343.0394203 -296.66707312 334.01316809 -305.46069336 324.93847656 C-306.33158096 324.04290543 -307.20246857 323.14733429 -308.0997467 322.22462463 C-308.88268097 321.41430283 -309.66561523 320.60398102 -310.47227478 319.769104 C-311.15771331 319.06120853 -311.84315184 318.35331306 -312.54936123 317.62396622 C-314 316 -314 316 -314 315 C-204.77 315 -95.54 315 17 315 C17.0825 280.741875 17.165 246.48375 17.25 211.1875 C17.30704102 200.37637451 17.36408203 189.56524902 17.42285156 178.42651367 C17.41638352 168.7228621 17.41638352 168.7228621 17.39398193 159.01924133 C17.3844411 154.70161624 17.40849821 150.38559096 17.45306396 146.06819153 C17.508877 140.55379397 17.50678496 135.04221832 17.46348906 129.52773917 C17.45736144 127.50853799 17.47125581 125.48914851 17.5078969 123.47027051 C18.00365109 112.21936841 18.00365109 112.21936841 13.37194061 102.40224648 C9.8315004 98.86640681 5.82789312 96.19133969 1.64511871 93.46519279 C0 92 0 92 -0.48101807 88.14656067 C-0.4926349 86.50242745 -0.48193223 84.85805003 -0.45410156 83.21411133 C-0.45468567 82.31634476 -0.45526978 81.41857819 -0.45587158 80.49360657 C-0.45308223 77.52268973 -0.42195001 74.55277306 -0.390625 71.58203125 C-0.38316564 69.52366179 -0.37747127 67.46528523 -0.37347412 65.40690613 C-0.35819382 59.98650542 -0.31889117 54.56653274 -0.2746582 49.14630127 C-0.23375726 43.61647329 -0.21547416 38.08657623 -0.1953125 32.55664062 C-0.1523994 21.70423892 -0.08411895 10.85215504 0 0 Z " fill="#3A383F" transform="translate(405,91)"/>
<path d="M0 0 C0 8.25 0 16.5 0 25 C1.65 25.66 3.3 26.32 5 27 C6.67709289 27.95698616 8.33119755 28.95497559 9.96484375 29.984375 C10.9185083 30.5827417 11.87217285 31.1811084 12.85473633 31.79760742 C13.87204834 32.44189697 14.88936035 33.08618652 15.9375 33.75 C16.99928467 34.41813721 18.06106934 35.08627441 19.1550293 35.7746582 C28.0414446 41.37342294 36.90278159 47.01191838 45.7578125 52.66015625 C53.04761989 57.30851522 60.36063971 61.92000322 67.67333984 66.53222656 C71.61660245 69.01983357 75.55820768 71.51006414 79.5 74 C81.0833256 75.00001224 82.66665893 76.00001225 84.25 77 C93.75 83 103.25 89 112.75 95 C113.53503906 95.49580566 114.32007813 95.99161133 115.12890625 96.50244141 C116.69924974 97.49425432 118.26956266 98.48611564 119.83984375 99.47802734 C123.99666156 102.10370449 128.15413451 104.72833704 132.3125 107.3515625 C133.18068359 107.89941406 134.04886719 108.44726562 134.94335938 109.01171875 C136.61113332 110.06411086 138.27909338 111.11620811 139.94726562 112.16796875 C140.69685547 112.64105469 141.44644531 113.11414063 142.21875 113.6015625 C142.87810547 114.01744629 143.53746094 114.43333008 144.21679688 114.86181641 C145.82419811 115.8877891 147.41334342 116.94222895 149 118 C149.36914349 119.88591957 149.36914349 119.88591957 149.36076355 122.22671509 C149.36489604 123.11110575 149.36902853 123.99549641 149.37328625 124.90668678 C149.36249192 125.88316862 149.3516976 126.85965046 149.34057617 127.86572266 C149.34093778 128.90674322 149.34129938 129.94776379 149.34167194 131.02033043 C149.33942653 134.40176773 149.31655195 137.78271354 149.29296875 141.1640625 C149.28855986 143.2469865 149.28549812 145.32991381 149.28381348 147.4128418 C149.26806218 155.15027844 149.22617879 162.887644 149.1875 170.625 C149.125625 187.90875 149.06375 205.1925 149 223 C94.55 223 40.1 223 -16 223 C-16.60454551 170.86130807 -16.60454551 170.86130807 -16.73242188 148.98632812 C-16.82137587 133.89090402 -16.92585531 118.7967372 -17.1315918 103.70239258 C-17.28137026 92.7082756 -17.37793537 81.71517993 -17.41132742 70.72007102 C-17.43084055 64.90063889 -17.47649759 59.0841277 -17.58595085 53.26563454 C-17.68828311 47.78091081 -17.71907818 42.30029072 -17.69661522 36.81470299 C-17.70071988 34.809077 -17.73027145 32.80330453 -17.78808212 30.79850769 C-18.22350833 14.91030321 -18.22350833 14.91030321 -12.58130074 8.83066368 C-3.11081439 0 -3.11081439 0 0 0 Z " fill="#FEE031" transform="translate(107,183)"/>
<path d="M0 0 C49.17 0 98.34 0 149 0 C149.20625 19.160625 149.4125 38.32125 149.625 58.0625 C149.71604004 64.10699463 149.80708008 70.15148926 149.90087891 76.37915039 C149.94604492 83.77429199 149.94604492 83.77429199 149.95443726 87.23899841 C149.96976924 89.65304502 150.00489308 92.06701613 150.05575562 94.48057556 C150.12907017 98.14342668 150.13905873 101.80161205 150.13525391 105.46508789 C150.17123499 106.53599954 150.20721607 107.60691118 150.24428749 108.7102747 C150.18142223 113.23766368 150.09243625 115.9070759 146.80252075 119.19846058 C144.26978908 120.99020638 141.72839075 122.52804641 139 124 C137.52031738 124.96498413 137.52031738 124.96498413 136.01074219 125.94946289 C135.19766602 126.4521167 134.38458984 126.95477051 133.546875 127.47265625 C132.60932373 128.05490967 131.67177246 128.63716309 130.70581055 129.23706055 C129.24268433 130.14065308 129.24268433 130.14065308 127.75 131.0625 C125.62583215 132.38205632 123.50214479 133.70238638 121.37890625 135.0234375 C119.78199951 136.01682129 119.78199951 136.01682129 118.15283203 137.03027344 C113.31278474 140.05408493 108.49858319 143.11788073 103.6875 146.1875 C94.58291417 151.99415746 85.46035131 157.77147845 76.32666016 163.53222656 C72.38339755 166.01983357 68.44179232 168.51006414 64.5 171 C62.9166744 172.00001224 61.33334107 173.00001225 59.75 174 C58.96625 174.495 58.1825 174.99 57.375 175.5 C53.8125 177.75 53.8125 177.75 50.25 180 C49.4660083 180.49516113 48.6820166 180.99032227 47.87426758 181.50048828 C46.2934066 182.49890968 44.71251475 183.4972822 43.1315918 184.49560547 C39.13517484 187.01935492 35.13932412 189.54399298 31.14453125 192.0703125 C27.20189912 194.56331917 23.25774759 197.05390076 19.31201172 199.54199219 C17.75082161 200.52651461 16.18995704 201.51155339 14.62939453 202.49707031 C12.37940833 203.91707827 10.12750597 205.33399342 7.875 206.75 C7.19348877 207.18070801 6.51197754 207.61141602 5.80981445 208.05517578 C1.11455745 211 1.11455745 211 0 211 C0 181.3 0 151.6 0 121 C0.99 121 1.98 121 3 121 C3.12117188 120.40832031 3.24234375 119.81664062 3.3671875 119.20703125 C3.53476562 118.41683594 3.70234375 117.62664062 3.875 116.8125 C4.03742188 116.03519531 4.19984375 115.25789063 4.3671875 114.45703125 C5 112 5 112 7 107 C13.6 107 20.2 107 27 107 C27.66 108.753125 28.32 110.50625 29 112.3125 C29.556875 113.79169922 29.556875 113.79169922 30.125 115.30078125 C31 118 31 118 31 121 C35.95 120.67 40.9 120.34 46 120 C45.36908447 118.26395508 44.73816895 116.52791016 44.08813477 114.73925781 C42.00298917 109.00025665 39.91968458 103.26058988 37.83763218 97.52046585 C36.57534383 94.04060401 35.31232024 90.56101275 34.04760742 87.08203125 C32.82689657 83.72400607 31.6081288 80.36528155 30.39069939 77.00606537 C29.92611621 75.72521672 29.46083597 74.44462069 28.99484444 73.16428375 C28.34179923 71.36963483 27.69147125 69.57399785 27.04125977 67.77832031 C26.67041763 66.75683899 26.2995755 65.73535767 25.91749573 64.68292236 C25 62 25 62 24 58 C19.38 58 14.76 58 10 58 C9.62875 59.299375 9.2575 60.59875 8.875 61.9375 C6.54891438 69.72483011 3.74167391 77.3517058 1 85 C0.67 85 0.34 85 0 85 C0 56.95 0 28.9 0 0 Z " fill="#76FBF3" transform="translate(256,90)"/>
<path d="M0 0 C5.28 0 10.56 0 16 0 C18.13994592 4.23403585 20.27741823 8.46913727 22.40869141 12.70751953 C23.13479257 14.14965065 23.86232665 15.59106122 24.59130859 17.03173828 C25.63754818 19.10001872 26.67864446 21.170817 27.71875 23.2421875 C28.21091003 24.21102371 28.21091003 24.21102371 28.7130127 25.19943237 C31 29.77225659 31 29.77225659 31 32 C31.66 32 32.32 32 33 32 C33.400979 30.70908447 33.400979 30.70908447 33.81005859 29.39208984 C34.99803935 26.00558909 36.422212 22.92856054 38.0390625 19.7265625 C38.61914062 18.57285156 39.19921875 17.41914063 39.796875 16.23046875 C40.40616191 15.02860117 41.01553802 13.82677881 41.625 12.625 C42.24255878 11.39992668 42.85974982 10.1746679 43.4765625 8.94921875 C44.9807622 5.96432247 46.48990008 2.98191562 48 0 C53.28 0 58.56 0 64 0 C64 20.79 64 41.58 64 63 C59.38 63 54.76 63 50 63 C49.67 51.12 49.34 39.24 49 27 C45.467417 34.43299235 45.467417 34.43299235 41.93994141 41.8684082 C41.49827637 42.79484131 41.05661133 43.72127441 40.6015625 44.67578125 C40.15119629 45.62364502 39.70083008 46.57150879 39.23681641 47.5480957 C38 50 38 50 36 53 C33.36 53 30.72 53 28 53 C23.71 44.42 19.42 35.84 15 27 C14.67 38.88 14.34 50.76 14 63 C9.38 63 4.76 63 0 63 C0 42.21 0 21.42 0 0 Z " fill="#BA1101" transform="translate(309,148)"/>
<path d="M0 0 C34.45614035 0 34.45614035 0 41.0234375 5.78125 C41.46945313 6.3484375 41.91546875 6.915625 42.375 7.5 C42.83648437 8.0671875 43.29796875 8.634375 43.7734375 9.21875 C47.71512652 14.94298628 47.78142731 20.17721532 47 27 C45.39411172 32.8366295 42.65260548 37.04425743 37.75 40.625 C30.6020168 44.4922979 22.8779007 43.37513813 15 43 C15 49.6 15 56.2 15 63 C10.05 63 5.1 63 0 63 C0 42.21 0 21.42 0 0 Z " fill="#FF511C" transform="translate(198,148)"/>
<path d="M0 0 C4.62 0 9.24 0 14 0 C18.98705819 12.62987034 23.73686566 25.33590231 28.36401367 38.10180664 C29.45799282 41.11901953 30.55596251 44.13476073 31.65429688 47.15039062 C32.35179427 49.07022831 33.04906879 50.99014699 33.74609375 52.91015625 C34.07411484 53.81097427 34.40213593 54.7117923 34.74009705 55.63990784 C35.03783524 56.46264694 35.33557343 57.28538605 35.64233398 58.13305664 C35.90545883 58.85819962 36.16858368 59.58334259 36.43968201 60.33045959 C37 62 37 62 37 63 C31.72 63 26.44 63 21 63 C17 52.375 17 52.375 17 49 C10.4 49 3.8 49 -3 49 C-3.474375 50.753125 -3.94875 52.50625 -4.4375 54.3125 C-5.22970982 57.24023193 -6.04071468 60.12214405 -7 63 C-11.95 63 -16.9 63 -22 63 C-20.66494721 56.36538268 -18.79039407 50.18961423 -16.4453125 43.84765625 C-16.10249237 42.90748154 -15.75967224 41.96730682 -15.40646362 40.99864197 C-14.6845763 39.02197639 -13.96001672 37.04628487 -13.23291016 35.0715332 C-12.13012088 32.07640808 -11.03502591 29.07856204 -9.94140625 26.08007812 C-9.23482185 24.148274 -8.52780475 22.21662807 -7.8203125 20.28515625 C-7.49725128 19.4025563 -7.17419006 18.51995636 -6.84133911 17.61061096 C-4.66267626 11.69725243 -2.3617092 5.84272581 0 0 Z " fill="#BB1403" transform="translate(266,148)"/>
<path d="M0 0 C2.84765625 1.30078125 2.84765625 1.30078125 4.9375 2.6875 C5.9375 5.6875 5.9375 5.6875 4.94140625 8.16796875 C4.22791016 9.50794922 4.22791016 9.50794922 3.5 10.875 C3.02691406 11.77605469 2.55382812 12.67710937 2.06640625 13.60546875 C1.69386719 14.29253906 1.32132813 14.97960937 0.9375 15.6875 C-3.0625 14.35416667 -7.0625 13.02083333 -11.0625 11.6875 C-12.95720816 11.6189505 -14.8541834 11.60269628 -16.75 11.625 C-17.74386719 11.63402344 -18.73773438 11.64304688 -19.76171875 11.65234375 C-20.52097656 11.66394531 -21.28023437 11.67554688 -22.0625 11.6875 C-22.7225 13.9975 -23.3825 16.3075 -24.0625 18.6875 C-22.886875 19.079375 -21.71125 19.47125 -20.5 19.875 C-19.68789062 20.14957031 -18.87578125 20.42414063 -18.0390625 20.70703125 C-15.81351362 21.44011887 -13.57716792 22.14057299 -11.3359375 22.82421875 C-10.01561635 23.2369515 -8.69530387 23.64971198 -7.375 24.0625 C-6.13363281 24.44148438 -4.89226562 24.82046875 -3.61328125 25.2109375 C1.02146909 27.13825942 4.36917641 29.43670707 7.29296875 33.6328125 C9.04484936 39.21759553 8.60962052 45.6337984 6.8125 51.125 C2.34432735 57.23150262 -2.69806605 60.25215305 -10.0625 61.6875 C-21.70414969 62.92565211 -31.77947256 60.03590026 -42.0625 54.6875 C-41.40465037 51.39069035 -40.16829427 48.84632078 -38.5 45.9375 C-38.04496094 45.13828125 -37.58992187 44.3390625 -37.12109375 43.515625 C-36.77175781 42.91234375 -36.42242187 42.3090625 -36.0625 41.6875 C-33.52167521 42.70382992 -30.98162285 43.72062457 -28.44921875 44.7578125 C-22.02888483 47.26648132 -16.29402474 49.3801099 -9.5625 46.6875 C-9.0675 46.3575 -8.5725 46.0275 -8.0625 45.6875 C-7.8511547 43.2962705 -7.8511547 43.2962705 -9.0625 40.6875 C-13.32804276 37.91489721 -18.26483402 36.59670234 -23.125 35.25 C-28.89819357 33.58638503 -34.08661569 31.32352999 -37.7578125 26.42578125 C-40.14939964 21.40631243 -39.67184578 16.11683937 -39.0625 10.6875 C-32.06578051 -4.38235737 -13.9182742 -5.56061015 0 0 Z " fill="#FF521D" transform="translate(181.0625,150.3125)"/>
<path d="M0 0 C8.85490542 3.96732483 16.12496843 11.95661251 23.14208984 18.54077148 C27.4779569 22.58598397 31.98364446 26.31505485 36.66015625 29.96484375 C39 32 39 32 43 37 C15.28 37 -12.44 37 -41 37 C-37.93906748 33.17383435 -35.72743566 30.79260589 -32 27.875 C-27.85011159 24.55288189 -23.88382826 21.12271462 -20 17.5 C-15.24907576 13.0750968 -10.35200707 8.92876923 -5.27734375 4.875 C-3.39823047 3.32787414 -1.67705831 1.75953659 0 0 Z " fill="#FEB300" transform="translate(255,53)"/>
<path d="M0 0 C0 12.21 0 24.42 0 37 C-13.86 37 -27.72 37 -42 37 C-38.93906748 33.17383435 -36.72743566 30.79260589 -33 27.875 C-28.85011159 24.55288189 -24.88382826 21.12271462 -21 17.5 C-16.24907576 13.0750968 -11.35200707 8.92876923 -6.27734375 4.875 C-4.02917928 3.08615233 -4.02917928 3.08615233 -2.25390625 1.25 C-1 0 -1 0 0 0 Z " fill="#FDDF31" transform="translate(256,53)"/>
<path d="M0 0 C2.3925 -0.103125 4.785 -0.20625 7.25 -0.3125 C7.99668945 -0.35802002 8.74337891 -0.40354004 9.51269531 -0.45043945 C13.19689207 -0.52723484 14.72007543 -0.2509214 17.48828125 2.23046875 C19.09262865 5.16969952 19.42410186 6.36980132 18.9375 9.625 C18.79634766 10.75808594 18.79634766 10.75808594 18.65234375 11.9140625 C17.83099863 14.54039959 17.33340677 15.49656515 15 17 C12.33106037 17.21876554 9.96499713 17.28335295 7.3125 17.1875 C4.899375 17.125625 2.48625 17.06375 0 17 C0 11.39 0 5.78 0 0 Z " fill="#FFF7F5" transform="translate(212,161)"/>
<path d="M0 0 C0.33 0 0.66 0 1 0 C1 10.89 1 21.78 1 33 C-2.96 33 -6.92 33 -11 33 C-9.55932506 25.47207764 -7.12995528 18.57886064 -4.375 11.4375 C-3.95476562 10.33341797 -3.53453125 9.22933594 -3.1015625 8.09179688 C-2.07321024 5.39237219 -1.0392595 2.69523999 0 0 Z " fill="#FF541F" transform="translate(255,178)"/>
<path d="M0 0 C4.18311605 2.78874403 7.68909148 5.31543049 11.375 8.625 C12.24898438 9.40101563 13.12296875 10.17703125 14.0234375 10.9765625 C16 13 16 13 16 15 C13.5472865 16.63514233 11.10780245 18.1481246 8.5625 19.625 C7.50192383 20.25535156 7.50192383 20.25535156 6.41992188 20.8984375 C1.15834263 24 1.15834263 24 0 24 C0 16.08 0 8.16 0 0 Z " fill="#FAB507" transform="translate(405,183)"/>
<path d="M0 0 C0.66 0 1.32 0 2 0 C3.00486895 2.95670218 4.00306024 5.91561577 5 8.875 C5.28617187 9.71675781 5.57234375 10.55851563 5.8671875 11.42578125 C6.13789063 12.23144531 6.40859375 13.03710938 6.6875 13.8671875 C7.06455078 14.98262939 7.06455078 14.98262939 7.44921875 16.12060547 C8 18 8 18 8 20 C3.38 20 -1.24 20 -6 20 C-4.63125844 13.04223041 -2.5466871 6.61396893 0 0 Z " fill="#79F6ED" transform="translate(272,167)"/>
<path d="M0 0 C4.95 0 9.9 0 15 0 C11.60254 3.39746 9.3725291 5.09057999 5.25 7.25 C4.26515625 7.77078125 3.2803125 8.2915625 2.265625 8.828125 C1.14414062 9.40820312 1.14414062 9.40820312 0 10 C0 6.7 0 3.4 0 0 Z " fill="#FEE032" transform="translate(405,197)"/>
<path d="M0 0 C4.95 0 9.9 0 15 0 C15 3.3 15 6.6 15 10 C13.24528614 9.09238938 11.49640736 8.17349289 9.75 7.25 C8.77546875 6.73953125 7.8009375 6.2290625 6.796875 5.703125 C4 4 4 4 0 0 Z " fill="#FFEC95" transform="translate(92,197)"/>
</svg>
